<svg width="39" height="52" viewBox="0 0 39 52" fill="none" xmlns="http://www.w3.org/2000/svg">
<path d="M35.2733 31.7694C35.0467 30.1535 34.5777 28.5821 33.8824 27.1094C38.0905 18.6093 40.6264 7.33118 37.7228 2.46504C37.2887 1.70421 36.6615 1.07457 35.9061 0.641276C35.1506 0.207986 34.2944 -0.0132013 33.4261 0.000609313C30.2989 0.000609313 27.6677 2.66444 25.3555 8.14668C23.9779 11.4221 22.9524 15.1636 22.2548 18.1702C20.4233 17.8427 18.5493 17.8427 16.7178 18.1702C16.0246 15.1636 14.9992 11.4221 13.6172 8.14668C11.3138 2.66444 8.67377 0.000609313 5.5465 0.000609313C4.6757 -0.0122106 3.81741 0.211298 3.06097 0.647872C2.30454 1.08445 1.6776 1.71813 1.24541 2.48297C-1.65817 7.34014 0.882182 18.6183 5.09026 27.1094C4.39737 28.5795 3.92987 30.1479 3.70381 31.7604C1.47875 33.8775 0.17623 36.802 0.0827756 39.8906C-0.0106785 42.9792 1.11259 45.9788 3.20549 48.2296C5.29838 50.4804 8.18945 51.7979 11.2427 51.8925C14.2959 51.987 17.2613 50.8508 19.4863 48.7337L14.8087 44.394C14.4475 44.0898 14.2205 43.6529 14.1777 43.1793C14.1349 42.7058 14.2798 42.2345 14.5806 41.8691C14.8813 41.5037 15.3133 41.2741 15.7814 41.2308C16.2495 41.1875 16.7154 41.3341 17.0766 41.6383L19.4863 43.6659L21.896 41.6383C22.2572 41.3341 22.7232 41.1875 23.1913 41.2308C23.6594 41.2741 24.0913 41.5037 24.3921 41.8691C24.6928 42.2345 24.8377 42.7058 24.7949 43.1793C24.7522 43.6529 24.5252 44.0898 24.1639 44.394L19.4863 48.7337C20.5833 49.8044 21.8795 50.6441 23.2997 51.2042C24.7199 51.7643 26.236 52.0337 27.7599 51.9966C29.2838 51.9596 30.7853 51.6169 32.1773 50.9884C33.5693 50.3599 34.8241 49.4581 35.8689 48.3353C36.9138 47.2126 37.7279 45.8911 38.2641 44.4477C38.8002 43.0042 39.0478 41.4674 38.9924 39.9265C38.937 38.3855 38.5797 36.871 37.9413 35.4708C37.3029 34.0705 36.396 32.8124 35.2733 31.7694ZM7.36705 23.5852C5.89208 20.2703 4.78674 16.7994 4.07146 13.2369C3.29851 9.17502 3.37381 5.84356 4.27744 4.33801C4.39218 4.10006 4.57383 3.90169 4.7996 3.76777C5.02536 3.63385 5.2852 3.57035 5.5465 3.58524C7.01047 3.58524 8.76236 5.75842 10.357 9.54917C11.6704 12.6723 12.6493 16.2972 13.3093 19.1829C11.0111 20.1568 8.97167 21.6641 7.35598 23.583L7.36705 23.5852ZM13.2849 37.6392C12.7593 37.6392 12.2454 37.4815 11.8084 37.1861C11.3713 36.8907 11.0307 36.4708 10.8295 35.9796C10.6284 35.4883 10.5757 34.9478 10.6783 34.4263C10.7808 33.9047 11.0339 33.4257 11.4056 33.0497C11.7773 32.6737 12.2509 32.4177 12.7664 32.3139C13.282 32.2102 13.8164 32.2634 14.302 32.4669C14.7876 32.6704 15.2027 33.015 15.4948 33.4571C15.7868 33.8992 15.9427 34.419 15.9427 34.9508C15.9427 35.6638 15.6627 36.3476 15.1642 36.8518C14.6658 37.356 13.9898 37.6392 13.2849 37.6392ZM25.6877 37.6392C25.162 37.6392 24.6482 37.4815 24.2111 37.1861C23.7741 36.8907 23.4334 36.4708 23.2323 35.9796C23.0311 35.4883 22.9785 34.9478 23.081 34.4263C23.1836 33.9047 23.4367 33.4257 23.8084 33.0497C24.1801 32.6737 24.6537 32.4177 25.1692 32.3139C25.6848 32.2102 26.2191 32.2634 26.7048 32.4669C27.1904 32.6704 27.6055 33.015 27.8975 33.4571C28.1896 33.8992 28.3454 34.419 28.3454 34.9508C28.3454 35.6638 28.0654 36.3476 27.567 36.8518C27.0686 37.356 26.3926 37.6392 25.6877 37.6392ZM30.2391 22.1424C28.8924 20.8989 27.3447 19.8986 25.6633 19.1851C26.3278 16.2972 27.3023 12.6723 28.6156 9.55141C30.2103 5.75842 31.9622 3.58524 33.4261 3.58524C33.6874 3.57035 33.9473 3.63385 34.173 3.76777C34.3988 3.90169 34.5805 4.10006 34.6952 4.33801C35.5988 5.84804 35.6741 9.17502 34.9012 13.2369C34.1895 16.799 33.0878 20.2698 31.6167 23.5852C31.1871 23.0762 30.727 22.5944 30.2391 22.1424Z" fill="white"/>
</svg>
