<svg width="62" height="29" viewBox="0 0 62 29" fill="none" xmlns="http://www.w3.org/2000/svg">
<path d="M4.02401 3.3695C5.30166 11.5135 10.3083 15.0377 14.3566 16.2403C14.2017 16.3309 14.0454 16.4239 13.8881 16.519C12.4522 17.3873 10.8282 18.4932 9.19149 19.6726C5.91627 22.0327 2.54082 24.7215 0.430478 26.4801C-0.00658474 26.8444 -0.0630217 27.4923 0.30271 27.9275C0.668678 28.3627 1.31953 28.421 1.75667 28.0567C3.83986 26.3206 7.17479 23.6625 10.401 21.3378C12.0149 20.1748 13.5907 19.1032 14.9607 18.2748C16.3609 17.4281 17.4514 16.8959 18.1266 16.7263C18.515 16.6287 19.1892 16.5733 20.1908 16.5791C21.1699 16.5848 22.3816 16.6471 23.7961 16.7416C24.953 16.8189 26.2699 16.9208 27.7005 17.0315C29.6957 17.1858 31.9124 17.3573 34.2236 17.5029C42.2516 18.0088 52.07 18.2547 61.1216 16.6437C61.6827 16.5437 62.0559 16.0102 61.9556 15.4516C61.8553 14.8929 61.3193 14.5215 60.7581 14.6214C51.9608 16.1872 42.3464 15.9551 34.354 15.4514C32.0187 15.3043 29.8738 15.1379 27.9176 14.9861C26.4888 14.8752 25.1607 14.7721 23.9326 14.6901C22.508 14.595 21.2479 14.53 20.2043 14.5239C19.2436 14.5183 18.3888 14.561 17.7403 14.7045C17.7187 14.7033 17.697 14.7026 17.6751 14.7027C14.5091 14.7098 7.54195 12.4754 6.06367 3.05182C5.97554 2.49129 5.44744 2.10791 4.88428 2.19546C4.32138 2.28336 3.93609 2.80901 4.02401 3.3695Z" fill="black"/>
<path d="M4.01931 1.31433C5.29696 9.45835 10.3036 12.9825 14.3519 14.1851C14.197 14.2757 14.0407 14.3687 13.8834 14.4639C12.4475 15.3322 10.8235 16.4381 9.18679 17.6175C5.91157 19.9775 2.53612 22.6663 0.425778 24.425C-0.0112844 24.7892 -0.0677214 25.4372 0.29801 25.8723C0.663978 26.3075 1.31483 26.3658 1.75197 26.0015C3.83516 24.2655 7.17009 21.6073 10.3963 19.2826C12.0102 18.1196 13.586 17.048 14.956 16.2196C16.3562 15.373 17.4467 14.8408 18.1219 14.6711C18.5103 14.5735 19.1845 14.5182 20.1861 14.524C21.1652 14.5297 22.3769 14.592 23.7914 14.6865C24.9483 14.7637 26.2652 14.8656 27.6958 14.9763C29.691 15.1306 31.9077 15.3021 34.2189 15.4478C42.2469 15.9537 52.0653 16.1996 61.1169 14.5885C61.678 14.4886 62.0512 13.955 61.9509 13.3964C61.8506 12.8378 61.3146 12.4663 60.7534 12.5662C51.9561 14.132 42.3417 13.8999 34.3493 13.3963C32.014 13.2491 29.8691 13.0827 27.913 12.9309C26.4841 12.82 25.156 12.717 23.9279 12.635C22.5033 12.5398 21.2432 12.4748 20.1996 12.4687C19.2389 12.4631 18.3841 12.5058 17.7356 12.6494C17.714 12.6481 17.6923 12.6474 17.6704 12.6475C14.5044 12.6546 7.53725 10.4202 6.05897 0.996645C5.97084 0.43611 5.44274 0.0527389 4.87958 0.140283C4.31668 0.228181 3.93139 0.753834 4.01931 1.31433Z" fill="white"/>
</svg>
