<svg width="24" height="24" viewBox="0 0 24 24" fill="none" xmlns="http://www.w3.org/2000/svg">
<path d="M9.13257 22.5435L8.58179 21.7563L6.37085 18.5981H13.696C16.096 18.5981 18.3985 17.6448 20.0955 15.9478C21.7923 14.2509 22.7457 11.9491 22.7458 9.54932C22.7458 7.14939 21.7925 4.8469 20.0955 3.1499C18.3985 1.4529 16.096 0.499512 13.696 0.499512H6.96851L7.33081 1.22314L8.64624 3.854L8.78394 4.13037H13.696C15.1331 4.13037 16.5119 4.70112 17.5281 5.71729C18.5442 6.73345 19.115 8.11225 19.115 9.54932C19.1149 10.9862 18.5441 12.3643 17.5281 13.3804C16.5119 14.3965 15.1331 14.9673 13.696 14.9673H6.37085L8.58179 11.8081L9.13257 11.022H4.62573L4.47632 11.2329L1.31909 15.7056L1.31226 15.7163L0.785889 16.5054L0.601318 16.7827L0.785889 17.0601L1.31226 17.8491L1.31909 17.8599L4.47632 22.3315L4.62573 22.5435H9.13257Z" fill="black" stroke="black"/>
</svg>
